<svg xmlns="http://www.w3.org/2000/svg" xmlns:xlink="http://www.w3.org/1999/xlink" width="584" height="487" viewBox="0 0 584 487"><defs><style>.a,.b,.c,.d,.f,.i{fill:url(#a);}.b{filter:url(#e);}.c{filter:url(#h);}.d{filter:url(#k);}.e{fill:#999;font-size:14px;font-family:Montserrat-Regular, Montserrat;}.f{opacity:0.5;}.g{fill:#333;font-size:16px;font-family:Montserrat-SemiBold, Montserrat;}.g,.j{font-weight:600;}.h{clip-path:url(#y);}.i{opacity:0.15;}.j{fill:#639;font-size:20px;font-family:OpenSans-Semibold, Open Sans;}.k{filter:url(#bc);}.l{filter:url(#ay);}.m{filter:url(#as);}.n{filter:url(#ao);}.o{filter:url(#ak);}.p{filter:url(#ag);}.q{filter:url(#aa);}.r{filter:url(#w);}.s{filter:url(#b);}</style><linearGradient id="a" x1="1" y1="1" x2="0.527" y2="0.518" gradientUnits="objectBoundingBox"><stop offset="0" stop-color="#efefef"/><stop offset="1" stop-color="#fff" stop-opacity="0.443"/></linearGradient><filter id="b" x="310.115" y="36.115" width="67.441" height="67.441" filterUnits="userSpaceOnUse"><feOffset dy="2" input="SourceAlpha"/><feGaussianBlur stdDeviation="4.5" result="c"/><feFlood flood-opacity="0.251"/><feComposite operator="in" in2="c"/><feComposite in="SourceGraphic"/></filter><filter id="e" x="310.115" y="287.115" width="67.441" height="67.441" filterUnits="userSpaceOnUse"><feOffset dy="2" input="SourceAlpha"/><feGaussianBlur stdDeviation="4.5" result="f"/><feFlood flood-opacity="0.251"/><feComposite operator="in" in2="f"/><feComposite in="SourceGraphic"/></filter><filter id="h" x="32.115" y="36.115" width="67.441" height="67.441" filterUnits="userSpaceOnUse"><feOffset dy="2" input="SourceAlpha"/><feGaussianBlur stdDeviation="4.5" result="i"/><feFlood flood-opacity="0.251"/><feComposite operator="in" in2="i"/><feComposite in="SourceGraphic"/></filter><filter id="k" x="32.115" y="286.115" width="67.441" height="67.441" filterUnits="userSpaceOnUse"><feOffset dy="2" input="SourceAlpha"/><feGaussianBlur stdDeviation="4.5" result="l"/><feFlood flood-opacity="0.251"/><feComposite operator="in" in2="l"/><feComposite in="SourceGraphic"/></filter><filter id="w" x="310.115" y="36.115" width="67.441" height="67.441" filterUnits="userSpaceOnUse"><feOffset dy="2" input="SourceAlpha"/><feGaussianBlur stdDeviation="4.5" result="x"/><feFlood flood-opacity="0.251"/><feComposite operator="in" in2="x"/><feComposite in="SourceGraphic"/></filter><clipPath id="y"><g class="s" transform="matrix(1, 0, 0, 1, 0, 0)"><circle class="a" cx="20.221" cy="20.221" r="20.221" transform="translate(0 0)"/></g></clipPath><filter id="aa" x="277.821" y="1.027" width="121.441" height="121.441" filterUnits="userSpaceOnUse"><feOffset dx="-15" dy="2" input="SourceAlpha"/><feGaussianBlur stdDeviation="13.5" result="ab"/><feFlood flood-opacity="0.333"/><feComposite operator="in" in2="ab"/><feComposite in="SourceGraphic"/></filter><filter id="ag" x="310.115" y="287.115" width="67.441" height="67.441" filterUnits="userSpaceOnUse"><feOffset dy="2" input="SourceAlpha"/><feGaussianBlur stdDeviation="4.5" result="ah"/><feFlood flood-opacity="0.251"/><feComposite operator="in" in2="ah"/><feComposite in="SourceGraphic"/></filter><filter id="ak" x="277.821" y="252.027" width="121.441" height="121.441" filterUnits="userSpaceOnUse"><feOffset dx="-15" dy="2" input="SourceAlpha"/><feGaussianBlur stdDeviation="13.5" result="al"/><feFlood flood-opacity="0.333"/><feComposite operator="in" in2="al"/><feComposite in="SourceGraphic"/></filter><filter id="ao" x="32.115" y="36.115" width="67.441" height="67.441" filterUnits="userSpaceOnUse"><feOffset dy="2" input="SourceAlpha"/><feGaussianBlur stdDeviation="4.5" result="ap"/><feFlood flood-opacity="0.251"/><feComposite operator="in" in2="ap"/><feComposite in="SourceGraphic"/></filter><filter id="as" x="-0.179" y="1.027" width="121.441" height="121.441" filterUnits="userSpaceOnUse"><feOffset dx="-15" dy="2" input="SourceAlpha"/><feGaussianBlur stdDeviation="13.5" result="at"/><feFlood flood-opacity="0.333"/><feComposite operator="in" in2="at"/><feComposite in="SourceGraphic"/></filter><filter id="ay" x="32.115" y="286.115" width="67.441" height="67.441" filterUnits="userSpaceOnUse"><feOffset dy="2" input="SourceAlpha"/><feGaussianBlur stdDeviation="4.5" result="az"/><feFlood flood-opacity="0.251"/><feComposite operator="in" in2="az"/><feComposite in="SourceGraphic"/></filter><filter id="bc" x="-0.179" y="251.027" width="121.441" height="121.441" filterUnits="userSpaceOnUse"><feOffset dx="-15" dy="2" input="SourceAlpha"/><feGaussianBlur stdDeviation="13.5" result="bd"/><feFlood flood-opacity="0.333"/><feComposite operator="in" in2="bd"/><feComposite in="SourceGraphic"/></filter></defs><rect class="a" width="279" height="255"/><rect class="a" width="292" height="256" transform="translate(279)"/><path class="a" d="M0,0H279V-232H0Z" transform="translate(0 487)"/><rect class="a" width="305" height="232" transform="translate(584 487) rotate(180)"/><text class="e" transform="translate(51 131)"><tspan x="0" y="14">Minimum annual business </tspan><tspan x="0" y="32">turnover of ₹ 300,000</tspan><tspan x="0" y="50">You’re 18 - 65 yrs old &amp; have </tspan><tspan x="0" y="68">been in business for min 6 </tspan><tspan x="0" y="86">months</tspan></text><circle class="f" cx="3" cy="3" r="3" transform="translate(40 137)"/><circle class="f" cx="3" cy="3" r="3" transform="translate(40 173)"/><text class="g" transform="translate(40 122)"><tspan x="0" y="0">Eligibility Scale</tspan></text><text class="e" transform="translate(325 131)"><tspan x="0" y="14">Fill in your personal, </tspan><tspan x="0" y="32">business KYC &amp; PAN details</tspan><tspan x="0" y="50">Upload your bank account </tspan><tspan x="0" y="68">statement of last 6 months</tspan></text><circle class="f" cx="3" cy="3" r="3" transform="translate(314 137)"/><circle class="f" cx="3" cy="3" r="3" transform="translate(314 173)"/><text class="g" transform="translate(314 122)"><tspan x="0" y="0">Apply Online</tspan></text><g transform="translate(316 40)"><circle class="a" cx="27.5" cy="27.5" r="27.5"/><g transform="translate(7.615 7.615)"><g class="r" transform="matrix(1, 0, 0, 1, -323.62, -47.62)"><circle class="a" cx="20.221" cy="20.221" r="20.221" transform="translate(323.62 47.62)"/></g><g class="h"><g class="q" transform="matrix(1, 0, 0, 1, -323.62, -47.62)"><circle class="i" cx="20.221" cy="20.221" r="20.221" transform="translate(333.32 39.53)"/></g></g></g><text class="j" transform="translate(21.154 14)"><tspan x="-5.708" y="21">2</tspan></text></g><g transform="translate(314 291)"><text class="e" transform="translate(11 91)"><tspan x="0" y="14">Amount gets credited to </tspan><tspan x="0" y="32">your Open business account</tspan><tspan x="0" y="50">And our experts will help you </tspan><tspan x="0" y="68">with repayment options</tspan></text><circle class="f" cx="3" cy="3" r="3" transform="translate(0 97)"/><circle class="f" cx="3" cy="3" r="3" transform="translate(0 133)"/><text class="g" transform="translate(0 82)"><tspan x="0" y="0">Get the Loan</tspan></text><g transform="translate(2)"><circle class="a" cx="27.5" cy="27.5" r="27.5"/><g transform="translate(7.615 7.615)"><g class="p" transform="matrix(1, 0, 0, 1, -323.62, -298.62)"><circle class="a" cx="20.221" cy="20.221" r="20.221" transform="translate(323.62 298.62)"/></g><g class="h"><g class="o" transform="matrix(1, 0, 0, 1, -323.62, -298.62)"><circle class="i" cx="20.221" cy="20.221" r="20.221" transform="translate(333.32 290.53)"/></g></g></g><text class="j" transform="translate(21.154 14)"><tspan x="-5.708" y="21">4</tspan></text></g></g><g transform="translate(38 40)"><circle class="a" cx="27.5" cy="27.5" r="27.5"/><g transform="translate(7.615 7.615)"><g class="n" transform="matrix(1, 0, 0, 1, -45.62, -47.62)"><circle class="a" cx="20.221" cy="20.221" r="20.221" transform="translate(45.62 47.62)"/></g><g class="h"><g class="m" transform="matrix(1, 0, 0, 1, -45.62, -47.62)"><circle class="i" cx="20.221" cy="20.221" r="20.221" transform="translate(55.32 39.53)"/></g></g></g><text class="j" transform="translate(20.154 14)"><tspan x="-5.708" y="21">1</tspan></text></g><g transform="translate(38 290)"><text class="e" transform="translate(13 91)"><tspan x="0" y="14">We assess your business </tspan><tspan x="0" y="32">performance</tspan><tspan x="0" y="50">And roll out the best deal </tspan><tspan x="0" y="68">for you</tspan></text><circle class="f" cx="3" cy="3" r="3" transform="translate(2 97)"/><circle class="f" cx="3" cy="3" r="3" transform="translate(2 133)"/><text class="g" transform="translate(2 82)"><tspan x="0" y="0">Loan Approval</tspan></text><circle class="a" cx="27.5" cy="27.5" r="27.5"/><g transform="translate(7.615 7.615)"><g class="l" transform="matrix(1, 0, 0, 1, -45.62, -297.62)"><circle class="a" cx="20.221" cy="20.221" r="20.221" transform="translate(45.62 297.62)"/></g><g class="h"><g class="k" transform="matrix(1, 0, 0, 1, -45.62, -297.62)"><circle class="i" cx="20.221" cy="20.221" r="20.221" transform="translate(55.32 289.53)"/></g></g></g><text class="j" transform="translate(21.154 14)"><tspan x="-5.708" y="21">3</tspan></text></g></svg>