<svg xmlns="http://www.w3.org/2000/svg" width="216.526" height="54.579" viewBox="0 0 216.526 54.579"><defs><style>.a{mix-blend-mode:multiply;isolation:isolate;}.b{fill:none;}.c{fill:#d5d8e3;}</style></defs><g class="a"><rect class="b" width="216.526" height="54.579"/><path class="c" d="M36.489,16.267a4.822,4.822,0,0,1,1.822-.757,4.707,4.707,0,0,1,4.561,1.763,5.084,5.084,0,0,1,.481,5.139A4.643,4.643,0,0,1,39.6,25.049l-16.138,0ZM4.236,25.049A4.645,4.645,0,0,1,.483,22.413a5.084,5.084,0,0,1,.482-5.139,4.7,4.7,0,0,1,4.559-1.763,4.82,4.82,0,0,1,1.823.757l13.027,8.785ZM143.6,13.791c.271-6.485,6.367-11.036,18.486-10.751,6.758.158,13.25,2.276,13.278,7.19H165.8c-.468-2.28-2.327-2.885-4.407-3.079-6.723-.626-7.914,4.426-7.914,6.558,0,3.65,1.059,6.666,7.659,6.666,1.217,0,4.576-1.259,4.576-3.306h9.492c-.382,6.07-10.533,7.525-14.96,7.525C151.076,24.594,143.224,22.877,143.6,13.791Zm-95.06,0c.27-6.485,6.365-11.036,18.487-10.751,6.758.158,13.248,2.276,13.277,7.19H70.742c-.468-2.28-2.326-2.885-4.408-3.079-6.721-.626-7.914,4.426-7.914,6.558,0,3.65,1.06,6.666,7.659,6.666,1.217,0,4.577-1.259,4.577-3.306h9.491c-.382,6.07-10.532,7.525-14.959,7.525C56.016,24.594,48.164,22.877,48.544,13.791Zm66.709,10.26V3.473h14.965a21.182,21.182,0,0,1,8.409,1.391c1.972.894,3.014,2.166,3.014,3.681a3.855,3.855,0,0,1-1.379,2.772,8.378,8.378,0,0,1-4.341,1.912v.058c4.742.283,6.51,3.29,6.51,5.119s-1.032,3.225-3.068,4.182c-2.063.97-5.125,1.463-9.1,1.463Zm8.663-4.312H126.4c4.706,0,6.295-.526,6.295-2.081s-1.771-2.282-5.574-2.282h-3.2Zm0-8.27H126.4a17.511,17.511,0,0,0,4.357-.349c1.017-.283,1.49-.775,1.49-1.546,0-1.62-1.485-2.281-5.126-2.281h-3.2Zm-22.9,12.582L89.985,9.23H89.9v14.82H82V3.473H94.322l10.513,14.82h.085V3.473h7.9V24.051ZM5.612,14.31A4.83,4.83,0,0,1,3.936,9.971a4.948,4.948,0,0,1,3.2-3.984,4.638,4.638,0,0,1,4.741,1.156,5.047,5.047,0,0,1,1.1,1.674l6.053,14.7ZM29.1,13.155l2.056-4.812a4.784,4.784,0,0,1,4.112-2.574,4.7,4.7,0,0,1,4.014,2.21,5.063,5.063,0,0,1,.053,5.176,5.924,5.924,0,0,1-1.7,1.7L24.762,23.488ZM12.736,6.724A5.059,5.059,0,0,1,13.5,1.666,4.676,4.676,0,0,1,18.257.175a4.847,4.847,0,0,1,3.306,3.384,5.761,5.761,0,0,1,.114,1.919L19,21.851ZM24.575,20.15,22.662,7.779a1.88,1.88,0,0,1,.833-1.81l.913-.545c.054-.192-.212-.255-.337-.319l-1.79-.018A4.727,4.727,0,0,1,24.451.712,4.631,4.631,0,0,1,28.706.365a4.871,4.871,0,0,1,2.9,4.348,5.39,5.39,0,0,1-.381,1.993L24.859,21.8Z" transform="translate(13.579 15.947)"/></g></svg>