<svg xmlns="http://www.w3.org/2000/svg" width="146.737" height="54.579" viewBox="0 0 146.737 54.579"><defs><style>.a{fill:none;}.b{fill:#d5d8e3;}</style></defs><rect class="a" width="146.737" height="54.579"/><path class="b" d="M12.7,25.053a12.855,12.855,0,0,1-9.49-4.194c5.5-2.8,11.14-5.512,16.749-8.051.437-.2.649-.392.612-.562-.06-.279-.752-.429-1.372-.429a2.392,2.392,0,0,0-.933.153C12.9,14.4,7.509,16.984,2.244,19.642a12.614,12.614,0,0,1-.853-1.4c-.013-.025-.025-.051-.036-.076s-.024-.051-.036-.076c4.754-2.241,9.538-4.7,14.221-7.3.6-.332.661-.642.609-.843-.105-.407-.785-.738-1.515-.738a1.8,1.8,0,0,0-.872.2c-4.338,2.41-8.778,4.7-13.2,6.816A12.456,12.456,0,0,1,6.9,1.387,12.771,12.771,0,0,1,23.987,6.818a12.439,12.439,0,0,1-5.508,16.853A12.875,12.875,0,0,1,12.7,25.053Zm90.169-2.321a7.041,7.041,0,0,1-2.82-.586,7.628,7.628,0,0,1-2.42-1.676,7.9,7.9,0,0,1-1.558-2.4,7.615,7.615,0,0,1-.58-2.8V11.351a8.1,8.1,0,0,1,.569-2.871,7.387,7.387,0,0,1,1.57-2.408,7.782,7.782,0,0,1,2.421-1.687,7.11,7.11,0,0,1,2.817-.579h.09a7.258,7.258,0,0,1,2.847.579,7.661,7.661,0,0,1,4,4.144,7.848,7.848,0,0,1,.538,2.894h-4.325a3.449,3.449,0,0,0-.242-1.3,3.411,3.411,0,0,0-.671-1.066,3.2,3.2,0,0,0-.977-.725,2.724,2.724,0,0,0-1.164-.263H102.9a2.754,2.754,0,0,0-1.178.263,3.158,3.158,0,0,0-.994.725,3.507,3.507,0,0,0-.913,2.362v3.686a3.35,3.35,0,0,0,.247,1.289,3.4,3.4,0,0,0,.666,1.068,3.143,3.143,0,0,0,.994.725,2.754,2.754,0,0,0,1.178.263h.03v.01h.03a2.749,2.749,0,0,0,1.169-.263,3.2,3.2,0,0,0,.977-.724,3.434,3.434,0,0,0,.913-2.358h4.325a7.85,7.85,0,0,1-.538,2.891,7.447,7.447,0,0,1-1.6,2.461,7.274,7.274,0,0,1-2.4,1.676,7.15,7.15,0,0,1-2.841.586h-.094Zm-11.5-.025H87.042V3.811h4.325V22.705Zm-17.426,0H69.51V3.81H73.4a9.9,9.9,0,0,1,3.664.7A9.525,9.525,0,0,1,82.33,9.641a9.155,9.155,0,0,1,.723,3.617l0,0a9.175,9.175,0,0,1-.723,3.621,9.353,9.353,0,0,1-2.111,3.083A9.487,9.487,0,0,1,77.325,21.9,9.824,9.824,0,0,1,73.94,22.706Zm-38.261,0H31.359V3.811h4.4L40.24,16.555,44.747,3.811h4.321V22.7H44.747V16.1L42.4,22.7H38.074L35.68,15.9V22.7Zm82.941,0h-4.275l4.275-2.935V22.7Zm-53.383,0H53.5V3.811H65.237V8.076H57.821V11.12h5.459v4.267H57.821v3.051h7.417V22.7ZM114.3,21.242V3.811h4.324V18.273L114.3,21.241ZM126.117,5.054H125.5V2.429h-.01L124.9,5.047h-.521l-.592-2.618h-.008V5.047h-.614V1.768h1v.006l.474,2.315h.01l.479-2.315h.99V5.053Zm-3.979,0h-.671V2.309h-.726V1.768h2.123v.548h-.725V5.053Z" transform="translate(20.579 13.579)"/></svg>