<svg xmlns="http://www.w3.org/2000/svg" width="201.316" height="54.579" viewBox="0 0 201.316 54.579"><defs><style>.a{fill:none;}.b{fill:#d5d8e3;}</style></defs><rect class="a" width="201.316" height="54.579"/><path class="b" d="M100.453,22.774a7.85,7.85,0,0,1-2.374-6.082h3.015A6.44,6.44,0,0,0,102,19.961c1.044,1.587,2.815,2.358,5.416,2.358a9.182,9.182,0,0,0,3.175-.509,3.65,3.65,0,0,0,2.748-3.591,3.131,3.131,0,0,0-1.174-2.759,11.8,11.8,0,0,0-3.709-1.393l-3.1-.724a14.221,14.221,0,0,1-4.3-1.581,4.966,4.966,0,0,1-2.188-4.448,6.852,6.852,0,0,1,2.135-5.251A8.327,8.327,0,0,1,107.1,0a10.3,10.3,0,0,1,6.136,1.795,5.665,5.665,0,0,1,1.9,2.338,8.466,8.466,0,0,1,.637,3.423h-3.015a6.17,6.17,0,0,0-.987-2.92c-.931-1.227-2.537-1.849-4.776-1.849a5.286,5.286,0,0,0-3.9,1.206,3.921,3.921,0,0,0-1.174,2.786,2.735,2.735,0,0,0,1.414,2.545A19.576,19.576,0,0,0,107.5,10.61l3.2.751a9.752,9.752,0,0,1,3.576,1.5,5.674,5.674,0,0,1,2.161,4.85c0,2.679-.908,4.529-2.775,5.653a12.366,12.366,0,0,1-6.484,1.688A9.573,9.573,0,0,1,100.453,22.774Zm33.859.375a6.362,6.362,0,0,1-1.388-4.314,6.922,6.922,0,0,1,1.467-4.636,4.853,4.853,0,0,1,3.922-1.714,5.126,5.126,0,0,1,3.709,1.473,5.794,5.794,0,0,1,1.521,4.368,7.649,7.649,0,0,1-1.334,4.609,4.9,4.9,0,0,1-4.162,1.822A4.662,4.662,0,0,1,134.312,23.15Zm1.387-7.61a6.3,6.3,0,0,0-.8,3.269,5.533,5.533,0,0,0,.8,3.082,2.765,2.765,0,0,0,2.534,1.232,2.72,2.72,0,0,0,2.588-1.5,7.229,7.229,0,0,0,.694-3.242,5.789,5.789,0,0,0-.507-2.626,2.846,2.846,0,0,0-2.776-1.58A2.678,2.678,0,0,0,135.7,15.54Zm-12.033,7.5a6.414,6.414,0,0,1-1.334-4.126,7,7,0,0,1,1.467-4.742,4.776,4.776,0,0,1,3.735-1.688,4.938,4.938,0,0,1,3.2.938,4.623,4.623,0,0,1,1.467,3.269h-1.868a3.368,3.368,0,0,0-.774-1.769,2.419,2.419,0,0,0-1.974-.7,2.725,2.725,0,0,0-2.641,1.8,7.056,7.056,0,0,0-.507,2.893,5.535,5.535,0,0,0,.72,2.92,2.83,2.83,0,0,0,4.189.455,3.753,3.753,0,0,0,.961-2.009h1.867a5.05,5.05,0,0,1-1.6,3.349,5.083,5.083,0,0,1-3.308,1.072A4.461,4.461,0,0,1,123.666,23.043Zm29.641,1.314h-1.974V16.826a3.9,3.9,0,0,0-.266-1.715,1.675,1.675,0,0,0-1.628-.8,2.936,2.936,0,0,0-2,.857,4.262,4.262,0,0,0-.907,3.082v6.109H144.61V12.807H146.5v1.634a5.88,5.88,0,0,1,1.255-1.232,3.83,3.83,0,0,1,2.161-.67,3.424,3.424,0,0,1,2.214.67,3.354,3.354,0,0,1,.854,1.152A4.1,4.1,0,0,1,154.509,13a4.236,4.236,0,0,1,1.948-.455,3.162,3.162,0,0,1,3.148,1.688,5.721,5.721,0,0,1,.454,2.438v7.69h-2V16.344a1.811,1.811,0,0,0-.587-1.58,2.188,2.188,0,0,0-1.388-.429,2.722,2.722,0,0,0-1.948.751,3.447,3.447,0,0,0-.827,2.545v6.726h0Zm-66.248,0V3.43H79.082V.617H98.266V3.43H90.288V24.356Zm-28.255,0V4.555l-6.67,19.8H48.959l-6.8-20.015v.724c0,.563.026,1.473.053,2.652s.053,2.064.053,2.626V24.356H39.194V.617h4.589l6.8,20.069L57.337.617h5.256l11.74,19.1V.59H77.4V24.329H73.8L61.846,5.2V24.356Zm-33.3,0V14.791L16.569.617H20.3L27.081,12,33.885.617h3.762L28.708,14.791v9.565Zm-22.307,0H0V.617H10.592a7.312,7.312,0,0,1,5.07,1.768A6.5,6.5,0,0,1,17.582,7.4a7.342,7.342,0,0,1-1.734,4.85,6.5,6.5,0,0,1-5.256,2.063H3.2V24.355h0Zm0-12.78h6.35a5.964,5.964,0,0,0,3.469-.912,3.64,3.64,0,0,0,1.308-3.242,3.584,3.584,0,0,0-1.922-3.564A6.508,6.508,0,0,0,9.525,3.35H3.2ZM118.13,23.864a1.6,1.6,0,0,1-.441-1.116,1.58,1.58,0,0,1,1.574-1.581,1.581,1.581,0,0,1,0,3.162h-.048A1.487,1.487,0,0,1,118.13,23.864Z" transform="translate(29.579 14.579)"/></svg>