<svg xmlns="http://www.w3.org/2000/svg" width="196.842" height="54.579" viewBox="0 0 196.842 54.579"><defs><style>.a{fill:none;}.b{fill:#d5d8e3;}</style></defs><rect class="a" width="196.842" height="54.579"/><path class="b" d="M24.851,24.832V8.277h8.284v8.277H49.7v8.277Zm-16.567,0V8.277H0V0H24.851V8.277H16.567V24.832Zm146.384-9.6c0-3.333,1.7-5.63,5.179-5.63a4.551,4.551,0,0,1,4.183,2.484l-2.568,1.946c-.518-.953-.87-1.408-1.678-1.408-.954,0-1.431.952-1.431,2.669s.518,2.608,1.535,2.608c.7,0,1.2-.393,1.884-1.408l2.362,1.842c-1.263,1.863-2.444,2.587-4.37,2.587C156.574,20.92,154.668,18.893,154.668,15.229Zm-24.829,1.24V9.826h3.749v6.169c0,1.407.477,1.779,1.244,1.779s1.242-.373,1.242-1.739V9.826h3.749V20.693h-3.749v-.725a4.1,4.1,0,0,1-2.713.953C130.978,20.92,129.839,19.327,129.839,16.469ZM105.4,13.449c0-4.657,2.734-7.472,6.629-7.472,3.563,0,4.972,1.531,5.966,4.263l-3.646,1.428c-.518-1.345-1.015-2.194-2.341-2.194-1.678,0-2.4,1.677-2.4,3.974,0,2.215.7,3.974,2.444,3.974,1.264,0,1.8-.683,2.589-2.049l3.4,1.8a6.239,6.239,0,0,1-6.028,3.747C107.7,20.92,105.4,17.733,105.4,13.449Zm-23.877,1.78c0-3.333,1.7-5.63,5.178-5.63a4.554,4.554,0,0,1,4.185,2.484l-2.569,1.946c-.518-.953-.871-1.408-1.678-1.408-.954,0-1.43.952-1.43,2.669s.517,2.608,1.533,2.608c.7,0,1.2-.393,1.885-1.408l2.361,1.842c-1.263,1.863-2.444,2.587-4.37,2.587C83.431,20.92,81.525,18.893,81.525,15.229Zm-11.639.04A6.085,6.085,0,0,1,71.3,11.03,4.714,4.714,0,0,1,74.857,9.6c3.126,0,4.848,2.132,4.848,6a6.826,6.826,0,0,1-.022.725H73.3a1.712,1.712,0,0,0,1.843,1.738,5.681,5.681,0,0,0,2.817-.766l1.429,2.381a8.484,8.484,0,0,1-4.433,1.242C71.83,20.92,69.886,18.755,69.886,15.269ZM73.3,14.007h3.107c-.235-1.378-.808-1.655-1.657-1.655S73.431,12.909,73.3,14.007Zm99.175,6.686V14.524c0-1.408-.476-1.779-1.242-1.779-.788,0-1.264.372-1.264,1.738v6.21h-3.729V7.095l3.729-1.49v4.946a4.158,4.158,0,0,1,2.733-.952c2.382,0,3.523,1.594,3.523,4.45v6.645Zm-23.731,0V14.524c0-1.408-.477-1.779-1.242-1.779-.788,0-1.265.372-1.265,1.738v6.21h-3.729V9.826h3.729v.724a4.158,4.158,0,0,1,2.733-.952c2.382,0,3.523,1.594,3.523,4.45v6.645Zm-28.477,0V9.826H124v.787a3.338,3.338,0,0,1,4.082-.559l-.87,3.87a2.35,2.35,0,0,0-1.74-.91c-.913,0-1.471.435-1.471,1.759v5.92Zm-20.935,0V14.524c0-1.408-.476-1.779-1.243-1.779-.787,0-1.264.372-1.264,1.738v6.21H93.1V7.095L96.829,5.6v4.946A4.159,4.159,0,0,1,99.563,9.6c2.382,0,3.522,1.594,3.522,4.45v6.645Zm-37.111,0V9.7h-4.06V6.2H70.3V9.7h-4.06V20.693ZM33.134,8.277V0H49.7V8.277Z" transform="translate(0 15.947)"/></svg>