<svg xmlns="http://www.w3.org/2000/svg" width="144.053" height="54.579" viewBox="0 0 144.053 54.579"><defs><style>.a{fill:none;}.b{fill:#d8dce6;}</style></defs><rect class="a" width="144.053" height="54.579"/><path class="b" d="M28.413,18.9V.28h3.868V19.148c0,1.747.774,2.376,2,2.376s2-.629,2-2.376V.28h3.658V18.9c0,3.914-1.969,6.15-5.767,6.15S28.413,22.817,28.413,18.9Zm53.662-.034V6.15C82.075,2.237,84.15,0,87.948,0s5.872,2.237,5.872,6.15V18.868c0,3.913-2.075,6.149-5.872,6.149S82.075,22.782,82.075,18.868Zm-25.951,0v-1.5h3.658v1.747c0,1.747.773,2.376,2,2.376s2-.629,2-2.376c0-1.782-.774-3.109-3.306-5.311-3.236-2.83-4.255-4.856-4.255-7.652,0-3.913,1.934-6.15,5.7-6.15s5.7,2.237,5.7,6.15v.769H63.965V5.9c0-1.747-.7-2.411-1.934-2.411S60.1,4.158,60.1,5.9c0,1.782.774,3.11,3.306,5.311,3.236,2.83,4.255,4.857,4.255,7.653,0,3.913-1.969,6.149-5.767,6.149S56.123,22.782,56.123,18.868Zm-41.776,0V6.15c0-3.913,2.075-6.15,5.873-6.15s5.873,2.237,5.873,6.15V18.868c0,3.913-2.075,6.149-5.873,6.149S14.347,22.782,14.347,18.868Zm99.376,5.87V16.632L108.835.28h4.045L115.8,11.425h.07L118.787.28h3.692l-4.888,16.352v8.106Zm-9.319,0a7.492,7.492,0,0,1-.351-3.005V17.889c0-2.271-.774-3.11-2.533-3.11h-1.336v9.958H96.317V.28h5.837c4.009,0,5.731,1.851,5.731,5.625V7.826c0,2.516-.808,4.124-2.532,4.927v.07c1.934.8,2.567,2.621,2.567,5.171v3.774a7.174,7.174,0,0,0,.422,2.97Zm-31.613,0V3.774H68.747V.28H80.7V3.774H76.659V24.738Zm-22.118,0a7.485,7.485,0,0,1-.352-3.005V17.889c0-2.271-.773-3.11-2.532-3.11H46.453v9.958H42.584V.28h5.837c4.009,0,5.732,1.851,5.732,5.625V7.826c0,2.516-.809,4.124-2.532,4.927v.07c1.934.8,2.567,2.621,2.567,5.171v3.774a7.159,7.159,0,0,0,.422,2.97Zm-45.785,0V16.632L0,.28H4.044L6.962,11.425h.07L9.951.28h3.693L8.756,16.632v8.106Z" transform="translate(6.331 15.947)"/></svg>