<svg xmlns="http://www.w3.org/2000/svg" xmlns:xlink="http://www.w3.org/1999/xlink" width="284" height="525" viewBox="0 0 284 525"><defs><style>.a{fill:#639;}.b{clip-path:url(#e);}.c{opacity:0.1;fill:url(#f);}.d{opacity:0.05;fill:url(#i);}.e{filter:url(#j);}.f{filter:url(#g);}.g{filter:url(#c);}.h{filter:url(#a);}</style><filter id="a" x="0" y="0" width="284" height="525" filterUnits="userSpaceOnUse"><feOffset dx="7" dy="7" input="SourceAlpha"/><feGaussianBlur stdDeviation="12.5" result="b"/><feFlood flood-opacity="0.2"/><feComposite operator="in" in2="b"/><feComposite in="SourceGraphic"/></filter><filter id="c" x="0" y="0" width="284" height="525" filterUnits="userSpaceOnUse"><feOffset dx="7" dy="7" input="SourceAlpha"/><feGaussianBlur stdDeviation="12.5" result="d"/><feFlood flood-opacity="0.2"/><feComposite operator="in" in2="d"/><feComposite in="SourceGraphic"/></filter><clipPath id="e"><g class="h" transform="matrix(1, 0, 0, 1, 0, 0)"><path class="a" d="M0,0H189a20,20,0,0,1,20,20V430a20,20,0,0,1-20,20H0a0,0,0,0,1,0,0V0A0,0,0,0,1,0,0Z"/></g></clipPath><linearGradient id="f" x1="0.486" y1="0.422" x2="0.833" y2="0.897" gradientUnits="objectBoundingBox"><stop offset="0" stop-color="#af74eb"/><stop offset="1" stop-color="#639"/></linearGradient><filter id="g" x="-51" y="175.959" width="462.807" height="426.556" filterUnits="userSpaceOnUse"><feOffset dx="-15" dy="2" input="SourceAlpha"/><feGaussianBlur stdDeviation="13.5" result="h"/><feFlood flood-opacity="0.333"/><feComposite operator="in" in2="h"/><feComposite in="SourceGraphic"/></filter><linearGradient id="i" x1="0.486" y1="0.422" x2="0.833" y2="0.897" gradientUnits="objectBoundingBox"><stop offset="0" stop-color="#d1a3ff"/><stop offset="1" stop-color="#639"/></linearGradient><filter id="j" x="-177.994" y="-102" width="462.807" height="426.556" filterUnits="userSpaceOnUse"><feOffset dy="15" input="SourceAlpha"/><feGaussianBlur stdDeviation="13.5" result="k"/><feFlood flood-opacity="0.502"/><feComposite operator="in" in2="k"/><feComposite in="SourceGraphic"/></filter></defs><g transform="translate(30.5 30.5)"><g class="g" transform="matrix(1, 0, 0, 1, -30.5, -30.5)"><path class="a" d="M0,0H189a20,20,0,0,1,20,20V430a20,20,0,0,1-20,20H0a0,0,0,0,1,0,0V0A0,0,0,0,1,0,0Z" transform="translate(30.5 30.5)"/></g><g class="b"><g class="f" transform="matrix(1, 0, 0, 1, -30.5, -30.5)"><path class="c" d="M15.445,245.592s21.535-70,102-66,88-88,88-88-1.926-107,119-89,13.082,161,13.082,161L324.445,346.108,5.477,298.416,0,249.592Z" transform="translate(4.5 213.91)"/></g><g class="e" transform="matrix(1, 0, 0, 1, -30.5, -30.5)"><path class="d" d="M15.445,245.592s21.535-70,102-66,88-88,88-88-1.926-107,119-89,13.082,161,13.082,161L324.445,346.108,5.477,298.416,0,249.592Z" transform="translate(244.31 269.61) rotate(180)"/></g></g></g></svg>