<svg xmlns="http://www.w3.org/2000/svg" xmlns:xlink="http://www.w3.org/1999/xlink" width="158.74" height="41.318" viewBox="0 0 158.74 41.318"><defs><style>.a{fill:#e91287;}.b{fill:url(#a);}.c{fill:url(#b);}.d{fill:#639;}</style><linearGradient id="a" x1="0.096" y1="1.111" x2="0.696" y2="-0.016" gradientUnits="objectBoundingBox"><stop offset="0" stop-color="#674695"/><stop offset="0.23" stop-color="#823b91"/><stop offset="0.73" stop-color="#c31d8b"/><stop offset="1" stop-color="#e91287"/></linearGradient><linearGradient id="b" x1="0.245" y1="1.165" x2="0.689" y2="0.196" gradientUnits="objectBoundingBox"><stop offset="0" stop-color="#ea188a"/><stop offset="0.08" stop-color="#ec1e82"/><stop offset="0.22" stop-color="#ed356e"/><stop offset="0.38" stop-color="#f05949"/><stop offset="0.54" stop-color="#f38020"/><stop offset="1" stop-color="#f58820"/></linearGradient></defs><g transform="translate(-0.4 -0.386)"><path class="a" d="M4.829,33.866A20.956,20.956,0,0,1,5.864,5.945V5.9s2.415-2.539,5.145-.633a4.3,4.3,0,0,1,.866.816A12.983,12.983,0,0,1,13.088,4.1c4.49-6.065,13.3-3.616,13.3-3.616l.284.122A20.733,20.733,0,0,1,38.1,9.439a6.315,6.315,0,0,1,.631,1.086l.008-.016a20.929,20.929,0,0,1-6.476,27.164A20.5,20.5,0,0,1,4.829,33.866Z" transform="translate(0.443 0.405)"/><path class="b" d="M15.5,20.748a4.978,4.978,0,0,0-.214-5.6,10.121,10.121,0,0,1-1.044-3.408c-.481-2.008-.356-6.763,3.236-7.122a5.318,5.318,0,0,1,4.741,2.041C21.1,3.129,17.486.222,12.377.027,9.4-.137,4.987.361,2.212,4.108A13.131,13.131,0,0,0,1,6.1a11.884,11.884,0,0,0-.862,6.567c.348,1.5,1.687,5.983,5.606,8.326C10.468,23.842,14.129,22.609,15.5,20.748Z" transform="translate(11.335 0.386)"/><path class="c" d="M20.6,26.112a11.431,11.431,0,0,1-8.136-3.365,11.575,11.575,0,0,1-1.455-14.6h0a11.933,11.933,0,0,1,.862-6.571.452.452,0,0,0,.028-.053,4.279,4.279,0,0,0-.862-.816c-2.73-1.906-5.145.637-5.145.637V1.4A20.986,20.986,0,0,0,.433,20.234c4.769,4.461,11.541,5.9,18.822,6.1C27.539,26.557,30,21.251,30,21.251h0a11.5,11.5,0,0,1-9.4,4.861Z" transform="translate(0.4 4.969)"/><path class="d" d="M8.232,26.5A13.616,13.616,0,0,1,0,13.842v-.073A13.949,13.949,0,0,1,1.04,8.43a13.5,13.5,0,0,1,2.9-4.4A14.106,14.106,0,0,1,19.23,1.084a13.339,13.339,0,0,1,7.2,7.294,13.9,13.9,0,0,1,1.036,5.342v.074a14.036,14.036,0,0,1-1.036,5.363A13.58,13.58,0,0,1,13.7,27.568v.008h-.131A13.7,13.7,0,0,1,8.232,26.5Z" transform="translate(48.714 7.329)"/><path class="d" d="M8.35,26.635a13.272,13.272,0,0,1-4.413-2.783,12.288,12.288,0,0,1-2.9-4.323A14.6,14.6,0,0,1,0,13.918v-.1A14.922,14.922,0,0,1,.968,8.429a13.335,13.335,0,0,1,2.726-4.4A12.727,12.727,0,0,1,13.176,0a13.6,13.6,0,0,1,5.865,1.171,11.569,11.569,0,0,1,4.1,3.147A13.236,13.236,0,0,1,25.57,8.914a18.923,18.923,0,0,1,.809,5.539v.927c0,.327-.016.654-.049.979H8.864a5.442,5.442,0,0,0,2.022,3.265A6.025,6.025,0,0,0,14.527,20.7a7.133,7.133,0,0,0,2.888-.588,4.569,4.569,0,0,0,.752-.319,3.917,3.917,0,0,1,4.3.024l.583.491-.024.008a7.275,7.275,0,0,1,1.617,2.792A14.087,14.087,0,0,1,20.7,26.17a14.135,14.135,0,0,1-6.683,1.465l-.22,0A15.3,15.3,0,0,1,8.35,26.635Z" transform="translate(103.54 7.289)"/><path class="d" d="M23.971,27.612a2.811,2.811,0,0,0,2.484-2.751V9.935a10.383,10.383,0,0,0-2.427-7.29A8.65,8.65,0,0,0,17.3,0,8.472,8.472,0,0,0,14.72.376a9.626,9.626,0,0,0-2.144.975,9.1,9.1,0,0,0-1.735,1.4A16.1,16.1,0,0,0,9.429,4.38V.584H0V27.6H9.429V12.984a4.732,4.732,0,0,1,1.1-3.4,3.688,3.688,0,0,1,2.8-1.151,3.42,3.42,0,0,1,2.682,1.151,4.929,4.929,0,0,1,1.023,3.4V27.612Z" transform="translate(132.686 7.297)"/><path class="d" d="M0,27.636V0H11.731a15.725,15.725,0,0,1,4.652.657,10.283,10.283,0,0,1,3.592,1.894,8.347,8.347,0,0,1,2.281,3.057,10.092,10.092,0,0,1,.809,4.106v.069a9.951,9.951,0,0,1-.882,4.307,8.727,8.727,0,0,1-2.427,3.118A10.534,10.534,0,0,1,16.031,19.1a16.8,16.8,0,0,1-4.7.636l-1,0a2.786,2.786,0,0,0-2.759,2.722v5.171Z" transform="translate(78.644 7.268)"/></g></svg>