<svg xmlns="http://www.w3.org/2000/svg" width="170" height="70" viewBox="0 0 170 70"><defs><style>.a{fill:#639;opacity:0.3;}</style></defs><g transform="translate(170)"><circle class="a" cx="5" cy="5" r="5" transform="translate(-10)"/><circle class="a" cx="5" cy="5" r="5" transform="translate(-30)"/><circle class="a" cx="5" cy="5" r="5" transform="translate(-50)"/><circle class="a" cx="5" cy="5" r="5" transform="translate(-70)"/><circle class="a" cx="5" cy="5" r="5" transform="translate(-90)"/><circle class="a" cx="5" cy="5" r="5" transform="translate(-110)"/><circle class="a" cx="5" cy="5" r="5" transform="translate(-130)"/><circle class="a" cx="5" cy="5" r="5" transform="translate(-150)"/><circle class="a" cx="5" cy="5" r="5" transform="translate(-170)"/><circle class="a" cx="5" cy="5" r="5" transform="translate(-10 20)"/><circle class="a" cx="5" cy="5" r="5" transform="translate(-30 20)"/><circle class="a" cx="5" cy="5" r="5" transform="translate(-50 20)"/><circle class="a" cx="5" cy="5" r="5" transform="translate(-70 20)"/><circle class="a" cx="5" cy="5" r="5" transform="translate(-90 20)"/><circle class="a" cx="5" cy="5" r="5" transform="translate(-110 20)"/><circle class="a" cx="5" cy="5" r="5" transform="translate(-130 20)"/><circle class="a" cx="5" cy="5" r="5" transform="translate(-150 20)"/><circle class="a" cx="5" cy="5" r="5" transform="translate(-170 20)"/><circle class="a" cx="5" cy="5" r="5" transform="translate(-10 40)"/><circle class="a" cx="5" cy="5" r="5" transform="translate(-30 40)"/><circle class="a" cx="5" cy="5" r="5" transform="translate(-50 40)"/><circle class="a" cx="5" cy="5" r="5" transform="translate(-70 40)"/><circle class="a" cx="5" cy="5" r="5" transform="translate(-90 40)"/><circle class="a" cx="5" cy="5" r="5" transform="translate(-110 40)"/><circle class="a" cx="5" cy="5" r="5" transform="translate(-130 40)"/><circle class="a" cx="5" cy="5" r="5" transform="translate(-150 40)"/><circle class="a" cx="5" cy="5" r="5" transform="translate(-170 40)"/><circle class="a" cx="5" cy="5" r="5" transform="translate(-10 60)"/><circle class="a" cx="5" cy="5" r="5" transform="translate(-30 60)"/><circle class="a" cx="5" cy="5" r="5" transform="translate(-50 60)"/><circle class="a" cx="5" cy="5" r="5" transform="translate(-70 60)"/><circle class="a" cx="5" cy="5" r="5" transform="translate(-90 60)"/><circle class="a" cx="5" cy="5" r="5" transform="translate(-110 60)"/><circle class="a" cx="5" cy="5" r="5" transform="translate(-130 60)"/><circle class="a" cx="5" cy="5" r="5" transform="translate(-150 60)"/><circle class="a" cx="5" cy="5" r="5" transform="translate(-170 60)"/></g></svg>